<svg xmlns="http://www.w3.org/2000/svg" version="1.1" viewBox="137.88 448 822.12 171.21">
<path d="M0 0 C4.62 0 9.24 0 14 0 C16.11303291 5.44542547 17.91095396 10.87307667 19.46435547 16.5012207 C19.69084778 17.31067642 19.91734009 18.12013214 20.1506958 18.95411682 C20.89298092 21.61038837 21.63016786 24.26804436 22.3671875 26.92578125 C22.88873569 28.79704744 23.41056073 30.66823648 23.93264771 32.53935242 C25.02580441 36.45995703 26.11661436 40.38120401 27.20556641 44.30297852 C28.58606879 49.2745844 29.9707988 54.24499919 31.35714531 59.21497822 C32.43597675 63.08338301 33.51327197 66.95221427 34.59006119 70.82118797 C35.09920744 72.65047081 35.60862479 74.47967821 36.11834335 76.30880165 C36.83925267 78.89729258 37.55829312 81.48629614 38.27685547 84.07543945 C38.57944778 85.16036682 38.57944778 85.16036682 38.88815308 86.26721191 C41.35015223 95.15515739 43.65229994 104.07873978 46 113 C30.82 113 15.64 113 0 113 C5 108 5 108 6.84375 106.18359375 C14.13532204 98.49648832 18.25974861 88.64969291 18 78 C17.36313371 68.02242818 14.2428673 59.76460641 6.9375 52.75 C-2.79700299 45.25379922 -14.64357703 42.53267235 -26.3203125 39.66064453 C-31.20273528 38.45694227 -36.07261098 37.21005953 -40.9375 35.9375 C-41.87907959 35.70417969 -42.82065918 35.47085938 -43.79077148 35.23046875 C-52.19804834 33.01984542 -52.19804834 33.01984542 -55 29 C-55.0625 26.5 -55.0625 26.5 -54 24 C-48.71808396 18.86083845 -43.90938376 18.70557401 -36.82421875 18.78125 C-31.722673 19.17639047 -27.84349663 20.77100225 -23.5625 23.625 C-21.84954348 26.22869391 -21.68452698 27.59647514 -21.40234375 30.6484375 C-21.32363037 31.46231934 -21.24491699 32.27620117 -21.16381836 33.11474609 C-21.1097583 33.73687988 -21.05569824 34.35901367 -21 35 C-16.17601086 34.88204571 -11.35224042 34.75781982 -6.52856445 34.62768555 C-4.88635697 34.58427703 -3.24410261 34.54260642 -1.60180664 34.50268555 C0.75388745 34.4451256 3.10934428 34.38139108 5.46484375 34.31640625 C6.20339096 34.29969376 6.94193817 34.28298126 7.7028656 34.26576233 C11.14300627 34.46451987 11.14300627 34.46451987 14 33 C14.87378774 22.73299401 10.59605074 12.87514034 4.34375 4.8828125 C2.93154007 3.22413197 1.47046969 1.60725757 0 0 Z " fill="#F5F5F5" transform="translate(195,448)"/>
<path d="M0 0 C269.94 0 539.88 0 818 0 C818 0.99 818 1.98 818 3 C548.06 3 278.12 3 0 3 C0 2.01 0 1.02 0 0 Z " fill="#F2F1EF" transform="translate(142,573)"/>
<path d="M0 0 C1.90249643 3.36314382 2.70473438 6.62132066 3.51220703 10.38916016 C3.64904907 11.02051376 3.78589111 11.65186737 3.92687988 12.30235291 C4.37580533 14.38015934 4.81692635 16.45953669 5.2578125 18.5390625 C5.56842133 19.98595976 5.87945241 21.43276643 6.19088745 22.87948608 C6.84136506 25.90658566 7.4882537 28.93442147 8.13232422 31.96289062 C8.95888533 35.84909387 9.79200733 39.73385225 10.62750435 43.61814308 C11.2692278 46.60310452 11.90868575 49.5885473 12.54732895 52.57416916 C12.85391769 54.00722699 13.16093614 55.44019296 13.4683876 56.87306595 C13.89658093 58.87146538 14.3216588 60.8705316 14.74658203 62.86962891 C14.98925812 64.00784088 15.2319342 65.14605286 15.48196411 66.3187561 C16 69 16 69 16 71 C5.77 71 -4.46 71 -15 71 C-13.87486976 59.74869758 -13.87486976 59.74869758 -12.70898438 54.48046875 C-12.45201782 53.30645508 -12.19505127 52.13244141 -11.93029785 50.92285156 C-11.65423706 49.69018555 -11.37817627 48.45751953 -11.09375 47.1875 C-10.80568551 45.88388316 -10.51805503 44.58017034 -10.23083496 43.27636719 C-9.63253251 40.56609394 -9.03044584 37.85670096 -8.42529297 35.14794922 C-7.64944051 31.67460262 -6.88110974 28.19964569 -6.11528778 24.72407532 C-5.3819838 21.39870677 -4.64408202 18.07436695 -3.90625 14.75 C-3.63018921 13.50114014 -3.35412842 12.25228027 -3.06970215 10.96557617 C-2.8127356 9.81677979 -2.55576904 8.6679834 -2.29101562 7.484375 C-2.06530884 6.47084961 -1.83960205 5.45732422 -1.60705566 4.41308594 C-1 2 -1 2 0 0 Z " fill="#F6F6F6" transform="translate(294,490)"/>
<path d="M0 0 C9.24 0 18.48 0 28 0 C26.875 11.25 26.875 11.25 25.78491211 16.18408203 C25.54473862 17.28446808 25.30456512 18.38485413 25.05711365 19.51858521 C24.79978958 20.67003021 24.54246552 21.82147522 24.27734375 23.0078125 C23.87993736 24.81776199 23.87993736 24.81776199 23.47450256 26.66427612 C22.63416389 30.4857149 21.78596159 34.30535743 20.9375 38.125 C20.36276824 40.72891155 19.78983766 43.33321532 19.21679688 45.9375 C17.81717233 52.29299726 16.4111022 58.64704183 15 65 C14.34 64.67 13.68 64.34 13 64 C12.26596069 61.58413696 12.26596069 61.58413696 11.57958984 58.33447266 C11.31947113 57.12296539 11.05935242 55.91145813 10.79135132 54.66323853 C10.51427599 53.33023609 10.23747813 51.99717596 9.9609375 50.6640625 C9.6729905 49.30490403 9.38437704 47.94588659 9.09512329 46.58700562 C8.48983598 43.73485645 7.89019518 40.88159947 7.29492188 38.02734375 C6.53166677 34.36812831 5.75838338 30.71112958 4.98134422 27.05481911 C4.38504308 24.24670828 3.79215243 21.43788696 3.20048904 18.62879562 C2.91641013 17.28026009 2.6317219 15.93185277 2.34641647 14.5835762 C1.94831338 12.69782298 1.55485952 10.81109006 1.16162109 8.92431641 C0.9367099 7.850336 0.71179871 6.77635559 0.48007202 5.66983032 C0 3 0 3 0 0 Z " fill="#F4F4F4" transform="translate(314,448)"/>
<path d="M0 0 C8.91 0 17.82 0 27 0 C25.87436144 10.13074702 25.87436144 10.13074702 24.90844727 14.96289062 C24.69474991 16.04010376 24.48105255 17.11731689 24.26087952 18.22717285 C23.91711525 19.92456604 23.91711525 19.92456604 23.56640625 21.65625 C23.32840805 22.83973022 23.09040985 24.02321045 22.84519958 25.24255371 C22.34382445 27.72723519 21.84029367 30.21148257 21.3347168 32.6953125 C20.55969046 36.51384249 19.79819105 40.33491944 19.03710938 44.15625 C18.54769915 46.5730837 18.05749322 48.98975644 17.56640625 51.40625 C17.3392543 52.55403931 17.11210236 53.70182861 16.87806702 54.88439941 C16.6612175 55.93639526 16.44436798 56.98839111 16.22094727 58.07226562 C16.03299088 59.00220337 15.84503448 59.93214111 15.65138245 60.89025879 C15.43642624 61.58647339 15.22147003 62.28268799 15 63 C14.01 63.495 14.01 63.495 13 64 C11.29878689 56.39508718 9.60329065 48.78892434 7.91503143 41.18112659 C7.13088192 37.64835952 6.34478832 34.11604884 5.55419922 30.5847168 C4.79095859 27.17520335 4.03289368 23.76457644 3.27836609 20.35312462 C2.84983267 18.42194273 2.41598187 16.49194326 1.98205566 14.56196594 C1.72178589 13.38111923 1.46151611 12.20027252 1.19335938 10.98364258 C0.96241577 9.94661697 0.73147217 8.90959137 0.49353027 7.84114075 C0 5 0 5 0 0 Z " fill="#F4F4F4" transform="translate(248,448)"/>
<path d="M0 0 C1.67542976 0.28604898 3.34385343 0.61781233 5 1 C5.20681396 1.72179443 5.41362793 2.44358887 5.62670898 3.18725586 C6.56026514 6.43831732 7.49881306 9.68791644 8.4375 12.9375 C8.76298828 14.07380859 9.08847656 15.21011719 9.42382812 16.38085938 C9.73642578 17.46044922 10.04902344 18.54003906 10.37109375 19.65234375 C10.65911865 20.65257568 10.94714355 21.65280762 11.24389648 22.68334961 C11.78593813 24.9368766 11.78593813 24.9368766 13 26 C16.3 17.75 19.6 9.5 23 1 C23.99 1 24.98 1 26 1 C29.3 9.25 32.6 17.5 36 26 C38.36623524 19.78039196 38.36623524 19.78039196 40.38671875 13.5 C40.60263672 12.75878906 40.81855469 12.01757812 41.04101562 11.25390625 C41.36102539 10.13822266 41.36102539 10.13822266 41.6875 9 C41.91244141 8.22527344 42.13738281 7.45054687 42.36914062 6.65234375 C42.91553367 4.76903154 43.45816894 2.88462976 44 1 C45.65 0.67 47.3 0.34 49 0 C50.70278649 3.40557297 48.76660413 6.94574359 47.7265625 10.4375 C47.48336273 11.27337646 47.24016296 12.10925293 46.98959351 12.97045898 C46.47332893 14.74008421 45.95358621 16.50869783 45.43066406 18.27636719 C44.62888071 20.98688084 43.83692619 23.70010861 43.046875 26.4140625 C42.54484184 28.13037546 42.0422561 29.8465269 41.5390625 31.5625 C41.18118149 32.7844104 41.18118149 32.7844104 40.81607056 34.03100586 C39.11805126 39.76389748 39.11805126 39.76389748 38 42 C37.34 42 36.68 42 36 42 C32.37 33.09 28.74 24.18 25 15 C23.11209789 17.83185316 21.91109515 20.40773098 20.6171875 23.54296875 C20.17246094 24.61611328 19.72773437 25.68925781 19.26953125 26.79492188 C18.80933594 27.91447266 18.34914063 29.03402344 17.875 30.1875 C17.17310547 31.88422852 17.17310547 31.88422852 16.45703125 33.61523438 C15.30181032 36.40898294 14.14959012 39.2039308 13 42 C12.34 42 11.68 42 11 42 C6.58370094 28.43789013 2.65565423 14.78608726 -1 1 C-0.67 0.67 -0.34 0.34 0 0 Z " fill="#C1C1C0" transform="translate(674,513)"/>
<path d="M0 0 C7.57882375 1.26252248 14.96583581 2.90892194 22.375 4.9375 C23.33277344 5.18951172 24.29054687 5.44152344 25.27734375 5.70117188 C34.51136652 8.21195275 34.51136652 8.21195275 38 11 C39.125 14.4375 39.125 14.4375 39 18 C36.08744805 21.07436039 33.33705571 22.80764974 29.04223633 23.16113281 C26.63217917 23.20692203 24.22295609 23.23529089 21.8125 23.25 C20.98685547 23.270625 20.16121094 23.29125 19.31054688 23.3125 C13.15867492 23.35128249 7.22330842 22.74997531 2.33911133 18.58300781 C-0.63751164 15.06424331 -0.10266611 11.19060623 -0.0625 6.8125 C-0.05347656 5.54019531 -0.04445312 4.26789062 -0.03515625 2.95703125 C-0.02355469 1.98121094 -0.01195312 1.00539063 0 0 Z " fill="#F5F5F5" transform="translate(138,516)"/>
<path d="M0 0 C4.33852855 3.99552522 7.67396039 8.21321933 8.37109375 14.171875 C8.51284093 21.80954673 8.31750954 27.25096482 3 33 C-1.68299223 37.76880622 -6.46752834 40.26875625 -13.1875 40.4375 C-19.33050434 40.28847833 -24.08881342 38.72631989 -29 35 C-34.44411053 28.7813209 -36.54132116 23.25514768 -36 15 C-34.65232899 8.01436586 -31.73809991 3.24320414 -26 -1 C-17.51802747 -5.85424497 -8.13751691 -5.24655696 0 0 Z M-27.4375 7.625 C-30.86476755 12.83444668 -30.57659279 17.88170984 -30 24 C-27.84062362 28.47870656 -25.07047061 31.18198188 -21 34 C-16.22314057 35.59228648 -11.54157771 35.99433654 -6.7734375 34.12890625 C-2.02446199 31.41647642 1.34687481 28.29821491 3 23 C3.90244485 17.74003571 3.59178638 13.34292979 1 8.625 C-1.90406973 4.57242811 -5.26129238 2.45247743 -10 1 C-17.07328173 -0.01046882 -22.65956533 2.47953189 -27.4375 7.625 Z " fill="#D2D2D0" transform="translate(668,458)"/>
<path d="M0 0 C4.33852855 3.99552522 7.67396039 8.21321933 8.37109375 14.171875 C8.51284093 21.80954673 8.31750954 27.25096482 3 33 C-1.74401457 37.83094678 -6.5092669 40.27654511 -13.3125 40.375 C-19.86205584 40.2167557 -24.13751759 38.60791382 -28.9765625 34.19921875 C-33.45615488 29.45232559 -35.958241 25.30117652 -36.0234375 18.5859375 C-35.58073592 10.87360994 -33.29768696 5.89582984 -27.625 0.6875 C-19.23081935 -5.98160539 -8.85765961 -5.71085949 0 0 Z M-27.4375 7.5625 C-30.72950004 12.69802006 -30.61069794 18.07962279 -30 24 C-27.81473658 28.45146251 -25.0605479 31.18885145 -21 34 C-16.22314057 35.59228648 -11.54157771 35.99433654 -6.7734375 34.12890625 C-2.02446199 31.41647642 1.34687481 28.29821491 3 23 C3.90244485 17.74003571 3.59178638 13.34292979 1 8.625 C-1.90406973 4.57242811 -5.26129238 2.45247743 -10 1 C-17.06206655 -0.00886665 -22.61054758 2.48801155 -27.4375 7.5625 Z " fill="#D3D2D0" transform="translate(410,458)"/>
<path d="M0 0 C4.10420968 2.05210484 5.37988029 3.40733683 8.125 6.9375 C12.14578925 11.99505474 16.34739649 16.75484001 20.73828125 21.4921875 C22.92078288 23.9121634 24.9642611 26.45532638 27 29 C27.33 19.43 27.66 9.86 28 0 C29.65 0 31.3 0 33 0 C33 13.86 33 27.72 33 42 C24.29301383 37.64650691 18.01242647 27.93254165 12.0078125 20.41015625 C10.13340451 18.16013732 8.07074751 16.07074751 6 14 C5.67 23.24 5.34 32.48 5 42 C3.35 42 1.7 42 0 42 C0 28.14 0 14.28 0 0 Z " fill="#B5B5B3" transform="translate(573,513)"/>
<path d="M0 0 C18.72 0 18.72 0 24.5625 3.5625 C26.73045932 7.23860494 27.18961812 10.76013878 27 15 C25.33919133 19.24428882 23.07258037 21.06067601 19 23 C17.33898778 23.36045427 15.67261415 23.69792253 14 24 C14.39380859 24.47421387 14.78761719 24.94842773 15.19335938 25.43701172 C16.96730684 27.57886959 18.73371714 29.72681814 20.5 31.875 C21.12003906 32.62136719 21.74007812 33.36773438 22.37890625 34.13671875 C23.25869141 35.20986328 23.25869141 35.20986328 24.15625 36.3046875 C24.70087891 36.96452637 25.24550781 37.62436523 25.80664062 38.30419922 C27 40 27 40 27 42 C24.41796875 42.48828125 24.41796875 42.48828125 21 42 C18.37162871 39.70913285 16.3841112 36.97925415 14.3125 34.1875 C13.18472915 32.72178193 12.05586186 31.25690671 10.92578125 29.79296875 C10.18968628 28.81106567 10.18968628 28.81106567 9.4387207 27.80932617 C7.83233286 25.71896741 7.83233286 25.71896741 5 23 C5 29.27 5 35.54 5 42 C3.35 42 1.7 42 0 42 C0 28.14 0 14.28 0 0 Z M5 5 C5 9.29 5 13.58 5 18 C12.77484614 18.84607993 12.77484614 18.84607993 19.8671875 16.609375 C21.23499984 14.66613816 21.78412064 13.37467295 22 11 C21.63562767 8.76955321 21.63562767 8.76955321 20 7 C14.88524919 4.95409967 10.40701133 4.8102803 5 5 Z " fill="#D3D3D1" transform="translate(891,513)"/>
<path d="M0 0 C21.69859155 0 21.69859155 0 29 6 C33.53640318 10.65578221 35.06685663 15.34888876 35.4375 21.75 C35.30482656 27.60532126 33.34649046 32.23299406 30 37 C21.57922922 44.97868031 11.61467459 42 0 42 C0 28.14 0 14.28 0 0 Z M4 5 C4 15.56 4 26.12 4 37 C17.98133907 38.10139659 17.98133907 38.10139659 27.25 31.9375 C30.00651678 27.31048969 30.74581906 22.22780707 29.5234375 16.9375 C27.32483399 11.33226908 24.27115897 8.63557949 19 6 C14.05 5.67 9.1 5.34 4 5 Z " fill="#B7B7B5" transform="translate(487,513)"/>
<path d="M0 0 C2.5625 2.25 2.5625 2.25 4 4 C3.34 5.32 2.68 6.64 2 8 C-0.25621163 6.91367588 -2.37353544 5.76654035 -4.5 4.4375 C-8.97574664 1.86394568 -12.84112569 1.57009381 -18 2 C-22.39864117 3.43880786 -25.36004767 5.2780025 -28.4375 8.75 C-31.01581102 14.11288692 -31.72121493 18.54968675 -29.9375 24.1875 C-28.14559712 28.38236942 -25.73056342 30.43523765 -22 33 C-17.20229781 34.59923406 -11.69313672 35.11790581 -6.9296875 33.140625 C-5.25705956 32.14139273 -3.62612872 31.07324496 -2 30 C0.4375 29.25 0.4375 29.25 2 29 C2.66 29.99 3.32 30.98 4 32 C-2.76050479 38.36047492 -7.95196057 40.4531079 -17.3203125 40.25 C-22.83658334 39.73536249 -27.52369316 37.31564391 -31.64453125 33.63671875 C-35.81482071 28.60112427 -37.80484174 21.77884633 -37.4375 15.29296875 C-36.13273872 8.45462167 -33.17911485 3.3978878 -27.4375 -0.5625 C-18.61060825 -5.96266081 -8.74213236 -5.27020607 0 0 Z " fill="#D3D2D1" transform="translate(556,458)"/>
<path d="M0 0 C1.00023193 0.00523682 2.00046387 0.01047363 3.03100586 0.01586914 C4.1105957 0.0190918 5.19018555 0.02231445 6.30249023 0.02563477 C8.00695312 0.03820312 8.00695312 0.03820312 9.74584961 0.05102539 C11.45611328 0.05779297 11.45611328 0.05779297 13.20092773 0.06469727 C16.02845312 0.07652792 18.85587601 0.09301129 21.68334961 0.11352539 C21.68334961 1.76352539 21.68334961 3.41352539 21.68334961 5.11352539 C15.08334961 5.11352539 8.48334961 5.11352539 1.68334961 5.11352539 C1.68334961 9.07352539 1.68334961 13.03352539 1.68334961 17.11352539 C7.95334961 17.11352539 14.22334961 17.11352539 20.68334961 17.11352539 C21.01334961 18.76352539 21.34334961 20.41352539 21.68334961 22.11352539 C15.08334961 22.11352539 8.48334961 22.11352539 1.68334961 22.11352539 C1.68334961 27.06352539 1.68334961 32.01352539 1.68334961 37.11352539 C7.95334961 37.11352539 14.22334961 37.11352539 20.68334961 37.11352539 C21.01334961 38.76352539 21.34334961 40.41352539 21.68334961 42.11352539 C13.43334961 42.11352539 5.18334961 42.11352539 -3.31665039 42.11352539 C-3.33955678 36.29275728 -3.35948465 30.47214439 -3.37158203 24.65136719 C-3.37662306 22.66959098 -3.38345577 20.6878185 -3.39208984 18.70605469 C-3.40416554 15.86400431 -3.40988084 13.02200292 -3.41430664 10.17993164 C-3.41946793 9.28826797 -3.42462921 8.39660431 -3.4299469 7.47792053 C-3.43014216 5.35611938 -3.37875069 3.23441759 -3.31665039 1.11352539 C-2.31665039 0.11352539 -2.31665039 0.11352539 0 0 Z " fill="#CCCCCA" transform="translate(935.316650390625,512.886474609375)"/>
<path d="M0 0 C0.66 0 1.32 0 2 0 C4.22782445 4.69370195 6.45137785 9.3893951 8.67114258 14.08691406 C9.42552975 15.68185797 10.18104402 17.27626932 10.93774414 18.87011719 C12.03053914 21.17240646 13.11915179 23.4766347 14.20703125 25.78125 C14.54152786 26.48366821 14.87602448 27.18608643 15.22065735 27.90979004 C17.39596914 32.53149351 19.26003594 37.19685157 21 42 C19.02 42 17.04 42 15 42 C13.02 38.04 11.04 34.08 9 30 C3.39 30 -2.22 30 -8 30 C-9.98 33.96 -11.96 37.92 -14 42 C-15.98 42 -17.96 42 -20 42 C-15.27912857 31.38374082 -10.48607354 20.80724865 -5.5 10.3125 C-5.06703613 9.39831299 -4.63407227 8.48412598 -4.18798828 7.54223633 C-3.78563965 6.69943115 -3.38329102 5.85662598 -2.96875 4.98828125 C-2.61232422 4.24102783 -2.25589844 3.49377441 -1.88867188 2.72387695 C-1 1 -1 1 0 0 Z M0 11 C-0.83790789 12.78953185 -1.67019396 14.58169695 -2.5 16.375 C-2.9640625 17.37273438 -3.428125 18.37046875 -3.90625 19.3984375 C-5.1291873 21.83692626 -5.1291873 21.83692626 -5 24 C-1.04 24 2.92 24 7 24 C5.02 19.71 3.04 15.42 1 11 C0.67 11 0.34 11 0 11 Z " fill="#CDCDCB" transform="translate(858,513)"/>
<path d="M0 0 C8.25 0 16.5 0 25 0 C25 1.65 25 3.3 25 5 C18.4 5 11.8 5 5 5 C5 8.96 5 12.92 5 17 C11.27 17 17.54 17 24 17 C24 18.65 24 20.3 24 22 C17.73 22 11.46 22 5 22 C5 26.95 5 31.9 5 37 C11.27 37 17.54 37 24 37 C24 38.65 24 40.3 24 42 C16.08 42 8.16 42 0 42 C0 28.14 0 14.28 0 0 Z " fill="#D3D2D1" transform="translate(574,455)"/>
<path d="M0 0 C7.92 0 15.84 0 24 0 C24.33 1.65 24.66 3.3 25 5 C18.4 5 11.8 5 5 5 C5 8.96 5 12.92 5 17 C11.27 17 17.54 17 24 17 C24 18.65 24 20.3 24 22 C17.73 22 11.46 22 5 22 C5 26.95 5 31.9 5 37 C11.27 37 17.54 37 24 37 C24 38.65 24 40.3 24 42 C16.08 42 8.16 42 0 42 C0 28.14 0 14.28 0 0 Z " fill="#C9C9C7" transform="translate(737,513)"/>
<path d="M0 0 C7.92 0 15.84 0 24 0 C24 1.65 24 3.3 24 5 C17.73 5 11.46 5 5 5 C5 8.96 5 12.92 5 17 C11.27 17 17.54 17 24 17 C24 18.65 24 20.3 24 22 C17.73 22 11.46 22 5 22 C5 26.95 5 31.9 5 37 C10.94 37 16.88 37 23 37 C23.33 38.65 23.66 40.3 24 42 C16.08 42 8.16 42 0 42 C0 28.14 0 14.28 0 0 Z " fill="#B6B6B5" transform="translate(536,513)"/>
<path d="M0 0 C2.475 0.495 2.475 0.495 5 1 C5.01458252 1.98395752 5.02916504 2.96791504 5.04418945 3.98168945 C5.10216998 7.63293774 5.17940185 11.28356911 5.26245117 14.93432617 C5.29570188 16.51430243 5.32373346 18.09439752 5.34643555 19.67456055 C5.37998016 21.94631579 5.43229227 24.21698203 5.48828125 26.48828125 C5.49467117 27.19463211 5.5010611 27.90098297 5.50764465 28.6287384 C5.59513016 31.54780789 5.66484327 33.53354476 7.3972168 35.94458008 C9.52108401 37.34312965 10.97040745 37.40029593 13.5 37.375 C14.2734375 37.38273438 15.046875 37.39046875 15.84375 37.3984375 C18.5952681 36.89000481 19.40898402 36.29921212 21 34 C21.88188875 29.75617458 22.17749377 25.61519411 22.31640625 21.2890625 C22.35830078 20.04511719 22.40019531 18.80117188 22.44335938 17.51953125 C22.48267578 16.23433594 22.52199219 14.94914063 22.5625 13.625 C22.60568359 12.31660156 22.64886719 11.00820313 22.69335938 9.66015625 C22.79912429 6.44020203 22.90121579 3.22017469 23 0 C25.475 0.495 25.475 0.495 28 1 C28.05845252 5.49994472 28.09374855 9.99979063 28.125 14.5 C28.14175781 15.7684375 28.15851563 17.036875 28.17578125 18.34375 C28.25912385 34.34552947 28.25912385 34.34552947 23.5 39.9375 C19.25631625 43.43853909 16.15290906 43.33454504 10.76953125 43.28515625 C6.93275217 42.89011412 4.81134318 41.59508601 2 39 C-0.59036023 35.27919991 -0.25566238 31.30832539 -0.1953125 26.953125 C-0.1924826 26.18192322 -0.18965271 25.41072144 -0.18673706 24.6161499 C-0.17557013 22.16060668 -0.15047229 19.7054324 -0.125 17.25 C-0.11496568 15.58203653 -0.10584061 13.91406732 -0.09765625 12.24609375 C-0.07564225 8.16392103 -0.04113667 4.082023 0 0 Z " fill="#ACACAA" transform="translate(443,513)"/>
<path d="M0 0 C2.5 2.625 2.5 2.625 4 5 C2.68 6.32 1.36 7.64 0 9 C-0.53625 8.34 -1.0725 7.68 -1.625 7 C-3.89328722 4.70665444 -3.89328722 4.70665444 -7.1875 4.6875 C-9.90076459 4.69253291 -9.90076459 4.69253291 -11 6 C-11.1613058 9.06481021 -10.98150241 11.05549278 -10 14 C-8.68947596 14.71045688 -7.35159575 15.37118273 -6 16 C-0.66185502 20.06764598 4.40450446 24.00167283 5.4375 30.9375 C4.87672496 34.86292527 3.49711051 36.94797605 1 40 C-3.18600295 42.53776429 -7.23086681 43.06585848 -12 42 C-15.03002471 39.99166958 -17.52031462 37.64860128 -20 35 C-19.34 33.68 -18.68 32.36 -18 31 C-17.01 31 -16.02 31 -15 31 C-14.4225 31.825 -13.845 32.65 -13.25 33.5 C-11.14943003 36.38516502 -11.14943003 36.38516502 -7.375 36.4375 C-3.93358244 36.34047454 -3.93358244 36.34047454 -2 34 C-1.41557037 31.12762267 -1.41557037 31.12762267 -2 28 C-4.19741249 25.3063976 -6.57404326 23.34664066 -9.265625 21.15625 C-12.93573689 18.07809164 -15.61610579 15.78149893 -17.75 11.4375 C-18.07357886 6.98829062 -17.39103095 4.76768513 -15 1 C-9.80006763 -2.36466212 -5.49051912 -2.69166447 0 0 Z " fill="#BABAB9" transform="translate(392,514)"/>
<path d="M0 0 C7.26 0 14.52 0 22 0 C22 1.65 22 3.3 22 5 C16.72 5 11.44 5 6 5 C6 8.96 6 12.92 6 17 C11.28 17 16.56 17 22 17 C22 18.65 22 20.3 22 22 C16.72 22 11.44 22 6 22 C6 28.6 6 35.2 6 42 C4.02 42 2.04 42 0 42 C0 28.14 0 14.28 0 0 Z " fill="#C6C5C3" transform="translate(432,455)"/>
<path d="M0 0 C7.26 0 14.52 0 22 0 C22 1.65 22 3.3 22 5 C16.39 5 10.78 5 5 5 C5 8.96 5 12.92 5 17 C10.61 17 16.22 17 22 17 C22 18.65 22 20.3 22 22 C16.39 22 10.78 22 5 22 C5 28.6 5 35.2 5 42 C3.35 42 1.7 42 0 42 C0 28.14 0 14.28 0 0 Z " fill="#CDCDCB" transform="translate(690,455)"/>
<path d="M0 0 C6.93 0 13.86 0 21 0 C21 1.65 21 3.3 21 5 C15.72 5 10.44 5 5 5 C5 8.96 5 12.92 5 17 C10.28 17 15.56 17 21 17 C21 18.65 21 20.3 21 22 C15.72 22 10.44 22 5 22 C5 28.6 5 35.2 5 42 C3.35 42 1.7 42 0 42 C0 28.14 0 14.28 0 0 Z " fill="#D4D4D2" transform="translate(808,513)"/>
<path d="M0 0 C6.93 0 13.86 0 21 0 C21 1.65 21 3.3 21 5 C15.72 5 10.44 5 5 5 C5 8.96 5 12.92 5 17 C10.28 17 15.56 17 21 17 C21 18.65 21 20.3 21 22 C15.72 22 10.44 22 5 22 C5 28.6 5 35.2 5 42 C3.35 42 1.7 42 0 42 C0 28.14 0 14.28 0 0 Z " fill="#D3D3D1" transform="translate(467,455)"/>
<path d="M0 0 C7.26 0 14.52 0 22 0 C22.33 1.65 22.66 3.3 23 5 C20.03 5 17.06 5 14 5 C14 17.21 14 29.42 14 42 C12.02 42 10.04 42 8 42 C8 29.79 8 17.58 8 5 C5.03 5 2.06 5 -1 5 C-0.67 3.35 -0.34 1.7 0 0 Z " fill="#B0B0AE" transform="translate(408,513)"/>
<path d="M0 0 C1.65 0.33 3.3 0.66 5 1 C5 12.88 5 24.76 5 37 C9.95 37 14.9 37 20 37 C20 38.65 20 40.3 20 42 C13.07 42 6.14 42 -1 42 C-1.02290639 36.17923189 -1.04283426 30.358619 -1.05493164 24.5378418 C-1.05997267 22.55606559 -1.06680538 20.57429311 -1.07543945 18.5925293 C-1.08751515 15.75047891 -1.09323045 12.90847753 -1.09765625 10.06640625 C-1.10281754 9.17474258 -1.10797882 8.28307892 -1.11329651 7.36439514 C-1.11349177 5.24259399 -1.0621003 3.1208922 -1 1 C-0.67 0.67 -0.34 0.34 0 0 Z " fill="#B8B9B7" transform="translate(775,513)"/>
<path d="M0 0 C7.59 0 15.18 0 23 0 C23 1.65 23 3.3 23 5 C20.03 5 17.06 5 14 5 C14 17.21 14 29.42 14 42 C12.35 42 10.7 42 9 42 C9 29.79 9 17.58 9 5 C6.03 5 3.06 5 0 5 C0 3.35 0 1.7 0 0 Z " fill="#BFC0BE" transform="translate(618,513)"/>
<path d="M0 0 C1.65 0 3.3 0 5 0 C5 13.86 5 27.72 5 42 C3.35 42 1.7 42 0 42 C0 28.14 0 14.28 0 0 Z " fill="#D9D9D7" transform="translate(501,455)"/>
<path d="M0 0 C3.75843663 1.87921831 5.14975355 3.02470615 7.75 6.125 C8.36359375 6.84945312 8.9771875 7.57390625 9.609375 8.3203125 C10.29773438 9.15175781 10.29773438 9.15175781 11 10 C11.33 6.7 11.66 3.4 12 0 C12.99 0 13.98 0 15 0 C15 6.27 15 12.54 15 19 C10.54975483 15.43980387 7.57118603 12.31864357 4 8 C3.67 11.63 3.34 15.26 3 19 C2.01 19 1.02 19 0 19 C0 12.73 0 6.46 0 0 Z " fill="#AAB2B2" transform="translate(661,600)"/>
<path d="M0 0 C3.75843663 1.87921831 5.14975355 3.02470615 7.75 6.125 C8.36359375 6.84945312 8.9771875 7.57390625 9.609375 8.3203125 C10.29773438 9.15175781 10.29773438 9.15175781 11 10 C11.33 6.7 11.66 3.4 12 0 C12.99 0 13.98 0 15 0 C15 6.27 15 12.54 15 19 C10.54975483 15.43980387 7.57118603 12.31864357 4 8 C3.67 11.63 3.34 15.26 3 19 C2.01 19 1.02 19 0 19 C0 12.73 0 6.46 0 0 Z " fill="#AAB3B3" transform="translate(619,600)"/>
<path d="M0 0 C1.19109375 0.08314453 1.19109375 0.08314453 2.40625 0.16796875 C4.5 0.8125 4.5 0.8125 5.78125 2.86328125 C6.0184375 3.50652344 6.255625 4.14976562 6.5 4.8125 C3.5 4.8125 3.5 4.8125 1.5 3.8125 C-2.63064626 3.43634874 -2.63064626 3.43634874 -6.375 4.9375 C-8.02854531 7.69340884 -7.89365568 9.66325452 -7.5 12.8125 C-6.56402685 14.83201062 -6.56402685 14.83201062 -4.5 15.8125 C-0.13293092 16.20241688 1.80513897 16.27574069 5.5 13.8125 C5.5 15.1325 5.5 16.4525 5.5 17.8125 C1.77420911 20.29636059 -0.08711402 20.1929212 -4.5 19.8125 C-8.0386994 18.16110695 -9.31070153 17.09644771 -11.5 13.8125 C-11.84061873 10.7955912 -12.07212107 8.71842185 -11.5 5.8125 C-7.92455657 1.39024102 -5.62436154 -0.48391422 0 0 Z " fill="#A8B0B0" transform="translate(508.5,599.1875)"/>
<path d="M0 0 C0.66 0 1.32 0 2 0 C4.64 5.94 7.28 11.88 10 18 C8.68 18 7.36 18 6 18 C5.67 16.35 5.34 14.7 5 13 C0.93427371 13.1870631 0.93427371 13.1870631 -3 14 C-4.91744593 16.44309577 -4.91744593 16.44309577 -6 19 C-6.66 19 -7.32 19 -8 19 C-7.46199791 14.01400883 -5.88255471 10.48164295 -3.4375 6.125 C-2.79683594 4.97257813 -2.15617188 3.82015625 -1.49609375 2.6328125 C-0.75552734 1.32957031 -0.75552734 1.32957031 0 0 Z M0 5 C-0.33 6.65 -0.66 8.3 -1 10 C0.32 9.67 1.64 9.34 3 9 C2.01 7.68 1.02 6.36 0 5 Z " fill="#B1BBBB" transform="translate(710,600)"/>
<path d="M0 0 C3.63 0 7.26 0 11 0 C11 0.66 11 1.32 11 2 C8.36 2 5.72 2 3 2 C3 3.65 3 5.3 3 7 C5.64 7 8.28 7 11 7 C11 7.99 11 8.98 11 10 C8.36 10 5.72 10 3 10 C3 11.98 3 13.96 3 16 C5.64 16 8.28 16 11 16 C11 16.99 11 17.98 11 19 C7.37 19 3.74 19 0 19 C0 12.73 0 6.46 0 0 Z " fill="#959C9C" transform="translate(582,600)"/>
<path d="M0 0 C0.66 0 1.32 0 2 0 C2 2.31 2 4.62 2 7 C4.64 7 7.28 7 10 7 C10 4.69 10 2.38 10 0 C10.99 0 11.98 0 13 0 C13 6.27 13 12.54 13 19 C12.01 18.67 11.02 18.34 10 18 C10 15.36 10 12.72 10 10 C7.36 10 4.72 10 2 10 C2 12.97 2 15.94 2 19 C1.34 19 0.68 19 0 19 C0 12.73 0 6.46 0 0 Z " fill="#ACB4B4" transform="translate(542,600)"/>
<path d="M0 0 C0.99 0 1.98 0 3 0 C3.67119549 1.4562545 4.33681807 2.91507867 5 4.375 C5.556875 5.59316406 5.556875 5.59316406 6.125 6.8359375 C7 9 7 9 7 11 C7.66 11 8.32 11 9 11 C9.20496094 10.37351562 9.40992188 9.74703125 9.62109375 9.1015625 C9.89050781 8.28429687 10.15992188 7.46703125 10.4375 6.625 C10.70433594 5.81289063 10.97117187 5.00078125 11.24609375 4.1640625 C12 2 12 2 13 0 C13.99 0 14.98 0 16 0 C15.35534798 4.33304076 13.81074878 7.86672065 11.9375 11.8125 C11.38964844 12.97394531 10.84179688 14.13539063 10.27734375 15.33203125 C9.85582031 16.21246094 9.43429687 17.09289062 9 18 C8.34 18 7.68 18 7 18 C5.82887054 15.37690901 4.66294036 12.75171858 3.5 10.125 C3.16613281 9.37863281 2.83226562 8.63226562 2.48828125 7.86328125 C2.17246094 7.14785156 1.85664063 6.43242188 1.53125 5.6953125 C1.23798828 5.03547363 0.94472656 4.37563477 0.64257812 3.69580078 C0 2 0 2 0 0 Z " fill="#AAB3B3" transform="translate(362,600)"/>
<path d="M0 0 C3.63 0 7.26 0 11 0 C11 0.66 11 1.32 11 2 C9.68 2 8.36 2 7 2 C7 7.61 7 13.22 7 19 C6.01 18.67 5.02 18.34 4 18 C4 12.72 4 7.44 4 2 C2.68 2 1.36 2 0 2 C0 1.34 0 0.68 0 0 Z " fill="#AEB7B7" transform="translate(431,600)"/>
<path d="M0 0 C1.265625 2.0625 1.265625 2.0625 2 4 C-1 4 -1 4 -3 3 C-6.59870962 2.60883591 -8.34439619 2.52158641 -11.3125 4.6875 C-13.14301602 7.19598492 -13.66009204 8.94082833 -14 12 C-14.33 12 -14.66 12 -15 12 C-15.35468986 8.92602119 -15.4896498 6.06426004 -15 3 C-10.85869059 -1.45987168 -5.61807145 -2.15733944 0 0 Z " fill="#A9B3B3" transform="translate(513,600)"/>
<path d="M0 0 C3.3 0 6.6 0 10 0 C10 0.66 10 1.32 10 2 C7.36 2 4.72 2 2 2 C2 3.65 2 5.3 2 7 C4.64 7 7.28 7 10 7 C10 7.66 10 8.32 10 9 C7.03 9 4.06 9 1 9 C1 11.31 1 13.62 1 16 C0.67 16 0.34 16 0 16 C0 10.72 0 5.44 0 0 Z " fill="#D2DDDD" transform="translate(583,600)"/>
<path d="M0 0 C0.99 0 1.98 0 3 0 C3 5.94 3 11.88 3 18 C2.01 18.33 1.02 18.66 0 19 C0 12.73 0 6.46 0 0 Z " fill="#A3ABAB" transform="translate(745,600)"/>
<path d="M0 0 C0.99 0 1.98 0 3 0 C3 5.94 3 11.88 3 18 C2.01 18.33 1.02 18.66 0 19 C0 12.73 0 6.46 0 0 Z " fill="#A3ABAB" transform="translate(404,600)"/>
<path d="M0 0 C0.66 0 1.32 0 2 0 C2 2.64 2 5.28 2 8 C4.64 8 7.28 8 10 8 C10 8.33 10 8.66 10 9 C7.36 9 4.72 9 2 9 C2 12.3 2 15.6 2 19 C1.34 19 0.68 19 0 19 C0 12.73 0 6.46 0 0 Z " fill="#D5E0E0" transform="translate(542,600)"/>
<path d="M0 0 C0.99 0 1.98 0 3 0 C3.67119549 1.4562545 4.33681807 2.91507867 5 4.375 C5.556875 5.59316406 5.556875 5.59316406 6.125 6.8359375 C7 9 7 9 7 11 C7.66 11 8.32 11 9 11 C9 11.66 9 12.32 9 13 C7.68 13.33 6.36 13.66 5 14 C4.16235732 12.04350603 3.33000941 10.08474444 2.5 8.125 C2.0359375 7.03445313 1.571875 5.94390625 1.09375 4.8203125 C0 2 0 2 0 0 Z " fill="#A9B2B2" transform="translate(362,600)"/>
<path d="M0 0 C3.63 0.33 7.26 0.66 11 1 C11 1.33 11 1.66 11 2 C9.741875 2.061875 8.48375 2.12375 7.1875 2.1875 C4.99117898 2.3842028 4.99117898 2.3842028 3 3 C1.08255407 5.44309577 1.08255407 5.44309577 0 8 C-0.66 8 -1.32 8 -2 8 C-1.125 2.25 -1.125 2.25 0 0 Z " fill="#979E9E" transform="translate(704,611)"/>
<path d="M0 0 C0 0.99 0 1.98 0 3 C-0.639375 3.61875 -1.27875 4.2375 -1.9375 4.875 C-4.27990815 7.28839022 -4.63515416 8.7163874 -5 12 C-5.33 12 -5.66 12 -6 12 C-6.22893102 8.96666395 -6.35414522 6.02633186 -6 3 C-3.95583718 0.7514209 -3.03707969 0 0 0 Z " fill="#BDC7C7" transform="translate(504,600)"/>
<path d="M0 0 C3.3 0 6.6 0 10 0 C10 0.66 10 1.32 10 2 C7.36 2 4.72 2 2 2 C2 3.65 2 5.3 2 7 C0 4 0 4 0 0 Z " fill="#C7D3D3" transform="translate(583,600)"/>
<path d="M0 0 C0.93065133 2.60582371 1.14917407 3.64198224 0.0625 6.25 C-0.4634375 7.11625 -0.4634375 7.11625 -1 8 C-1.66 8 -2.32 8 -3 8 C-3.33 6.35 -3.66 4.7 -4 3 C-3.01 3 -2.02 3 -1 3 C-0.67 2.01 -0.34 1.02 0 0 Z " fill="#C7D0D0" transform="translate(372,610)"/>
<path d="M0 0 C1.89213369 2.38573379 3.02391783 4.07175348 4 7 C2.68 7 1.36 7 0 7 C-1.125 2.25 -1.125 2.25 0 0 Z " fill="#A0A7A7" transform="translate(716,611)"/>
<path d="M0 0 C0.99 0.33 1.98 0.66 3 1 C2.67 2.32 2.34 3.64 2 5 C-1.3 4.67 -4.6 4.34 -8 4 C-7.34 3.34 -6.68 2.68 -6 2 C-2.875 2.375 -2.875 2.375 0 3 C0 2.01 0 1.02 0 0 Z " fill="#D6E1E1" transform="translate(713,608)"/>
<path d="M0 0 C1.42944945 2.35438733 2.08661261 3.48032433 1.625 6.25 C1.41875 6.8275 1.2125 7.405 1 8 C0.67 7.67 0.34 7.34 0 7 C-0.66 7.99 -1.32 8.98 -2 10 C-1.125 2.25 -1.125 2.25 0 0 Z " fill="#BCBCBC" transform="translate(294,490)"/>
<path d="M0 0 C0.66 0.33 1.32 0.66 2 1 C-0.31 3.31 -2.62 5.62 -5 8 C-5.66 7.67 -6.32 7.34 -7 7 C-4.78071806 4.09197539 -3.07030857 2.04687238 0 0 Z " fill="#B9B8B6" transform="translate(529,457)"/>
</svg>